<svg xmlns="http://www.w3.org/2000/svg" width="26.318" height="30.705" viewBox="0 0 26.318 30.705">
  <path id="Icon_awesome-arrow-right" data-name="Icon awesome-arrow-right" d="M11.19,4.7l1.3-1.561a1.248,1.248,0,0,1,1.991,0L25.9,16.8a1.922,1.922,0,0,1,0,2.384L14.485,32.857a1.248,1.248,0,0,1-1.991,0L11.19,31.3a1.931,1.931,0,0,1,.023-2.412l7.078-8.072H1.41A1.564,1.564,0,0,1,0,19.125v-2.25a1.564,1.564,0,0,1,1.41-1.687H18.291L11.213,7.116A1.915,1.915,0,0,1,11.19,4.7Z" transform="translate(0 -2.647)" fill="#fff"/>
</svg>
