<svg xmlns="http://www.w3.org/2000/svg" width="44.042" height="44.042" viewBox="0 0 44.042 44.042">
  <path id="Icon_material-account-circle" data-name="Icon material-account-circle" d="M23.521,3A20.521,20.521,0,1,0,44.042,23.521,20.529,20.529,0,0,0,23.521,3Zm0,6.156a6.148,6.148,0,0,1,6.156,6.156,6.281,6.281,0,0,1-2.619,5.043,5.909,5.909,0,0,1-3.537,1.113,6.156,6.156,0,1,1,0-12.313Zm0,29.14a14.776,14.776,0,0,1-12.313-6.608c.062-4.084,8.208-6.32,12.313-6.32,4.084,0,12.251,2.237,12.313,6.32A14.776,14.776,0,0,1,23.521,38.3Z" transform="translate(-1.5 -1.5)" fill="none" stroke="#707070" stroke-width="3"/>
</svg>
